<?xml version="1.0" standalone="no"?>
<!DOCTYPE svg PUBLIC "-//W3C//DTD SVG 20010904//EN"
 "http://www.w3.org/TR/2001/REC-SVG-20010904/DTD/svg10.dtd">
<svg version="1.0" xmlns="http://www.w3.org/2000/svg"
 width="4500.000000pt" height="4500.000000pt" viewBox="0 0 4500.000000 4500.000000"
 preserveAspectRatio="xMidYMid meet">

<g transform="translate(0.000000,4500.000000) scale(0.100000,-0.100000)"
fill="#000000" stroke="none">
<path d="M2645 44958 c13 -24 606 -1123 1318 -2443 712 -1320 1355 -2512 1429
-2650 729 -1350 1653 -3237 2545 -5200 139 -308 263 -580 275 -605 123 -266
688 -1565 940 -2160 3240 -7648 5567 -15258 6817 -22301 559 -3145 911 -6235
1031 -9054 11 -259 20 -487 20 -507 l0 -38 5599 0 5599 0 -74 138 c-41 75 -81
142 -89 148 -8 6 -15 19 -15 28 0 9 -8 16 -20 16 -17 0 -20 7 -20 41 0 32 -4
42 -20 46 -11 3 -20 14 -20 24 0 12 -7 19 -20 19 -13 0 -20 7 -20 20 0 15 -7
20 -25 20 -18 0 -25 5 -25 20 0 13 -7 20 -20 20 -17 0 -20 7 -20 45 0 38 -3
45 -20 45 -13 0 -20 7 -20 20 0 13 -7 20 -20 20 -13 0 -20 7 -20 20 0 13 -7
20 -20 20 -17 0 -20 7 -20 40 0 33 -3 40 -20 40 -13 0 -20 7 -20 20 0 15 -7
20 -25 20 -23 0 -25 4 -25 45 0 38 -3 45 -20 45 -13 0 -20 7 -20 20 0 13 -7
20 -20 20 -17 0 -20 7 -20 40 0 33 -3 40 -20 40 -13 0 -20 7 -20 20 0 13 -7
20 -20 20 -17 0 -20 7 -20 45 0 38 -3 45 -20 45 -13 0 -20 7 -20 20 0 15 -7
20 -25 20 -22 0 -25 4 -25 40 0 33 -3 40 -20 40 -17 0 -20 7 -20 45 0 38 -3
45 -20 45 -13 0 -20 7 -20 20 0 13 -7 20 -20 20 -17 0 -20 7 -20 40 0 33 -3
40 -20 40 -17 0 -20 7 -20 40 0 33 -3 40 -20 40 -15 0 -20 7 -20 25 0 20 -5
25 -25 25 -22 0 -25 4 -25 40 0 33 -3 40 -20 40 -17 0 -20 7 -20 40 0 33 -3
40 -20 40 -17 0 -20 7 -20 45 0 38 -3 45 -20 45 -17 0 -20 7 -20 40 0 33 -3
40 -20 40 -13 0 -20 7 -20 20 0 13 -7 20 -20 20 -17 0 -20 7 -20 40 0 36 -2
40 -25 40 -23 0 -25 4 -25 45 0 38 -3 45 -20 45 -17 0 -20 7 -20 40 0 33 -3
40 -20 40 -17 0 -20 7 -20 40 0 33 -3 40 -20 40 -17 0 -20 7 -20 45 0 38 -3
45 -20 45 -13 0 -20 7 -20 20 0 13 -7 20 -20 20 -17 0 -20 7 -20 40 0 36 -2
40 -25 40 -23 0 -25 4 -25 45 0 38 -3 45 -20 45 -17 0 -20 7 -20 40 0 33 -3
40 -20 40 -17 0 -20 7 -20 40 0 33 -3 40 -20 40 -17 0 -20 7 -20 45 0 38 -3
45 -20 45 -13 0 -20 7 -20 20 0 13 -7 20 -20 20 -17 0 -20 7 -20 39 0 33 -4
40 -22 43 -19 2 -24 10 -26 41 -3 29 -7 37 -23 37 -16 0 -19 7 -19 45 0 38 -3
45 -20 45 -17 0 -20 7 -20 40 0 33 -3 40 -20 40 -17 0 -20 7 -20 40 0 33 -3
40 -20 40 -17 0 -20 7 -20 45 0 38 -3 45 -20 45 -13 0 -20 7 -20 19 0 13 -8
21 -22 23 -19 2 -24 10 -26 41 -3 29 -7 37 -23 37 -16 0 -19 7 -19 45 0 38 -3
45 -20 45 -17 0 -20 7 -20 40 0 33 -3 40 -20 40 -17 0 -20 7 -20 40 0 33 -3
40 -20 40 -17 0 -20 7 -20 45 0 38 -3 45 -20 45 -17 0 -20 7 -20 40 0 36 -2
40 -25 40 -18 0 -25 5 -25 19 0 10 -9 21 -20 24 -15 4 -20 14 -20 41 0 29 -4
36 -20 36 -17 0 -20 7 -20 45 0 38 -3 45 -20 45 -17 0 -20 7 -20 40 0 33 -3
40 -20 40 -17 0 -20 7 -20 40 0 33 -3 40 -20 40 -17 0 -20 7 -20 45 0 41 -2
45 -25 45 -22 0 -25 4 -25 40 0 33 -3 40 -20 40 -13 0 -20 7 -20 20 0 13 -7
20 -20 20 -17 0 -20 7 -20 45 0 38 -3 45 -20 45 -17 0 -20 7 -20 40 0 33 -3
40 -20 40 -17 0 -20 7 -20 40 0 33 -3 40 -20 40 -17 0 -20 7 -20 45 0 41 -2
45 -25 45 -22 0 -25 4 -25 40 0 33 -3 40 -20 40 -13 0 -20 7 -20 19 0 10 -9
21 -20 24 -15 4 -20 14 -20 41 0 29 -4 36 -20 36 -17 0 -20 7 -20 45 0 38 -3
45 -20 45 -17 0 -20 7 -20 40 0 33 -3 40 -20 40 -17 0 -20 7 -20 40 0 36 -2
40 -25 40 -23 0 -25 4 -25 45 0 38 -3 45 -20 45 -17 0 -20 7 -20 40 0 33 -3
40 -20 40 -13 0 -20 7 -20 19 0 10 -9 21 -20 24 -16 4 -20 14 -20 46 0 34 -3
41 -20 41 -17 0 -20 7 -20 40 0 33 -3 40 -20 40 -17 0 -20 7 -20 40 0 36 -2
40 -25 40 -23 0 -25 4 -25 45 0 38 -3 45 -20 45 -17 0 -20 7 -20 40 0 33 -3
40 -20 40 -17 0 -20 7 -20 40 0 33 -3 40 -20 40 -13 0 -20 7 -20 20 0 13 -7
20 -20 20 -17 0 -20 7 -20 45 0 38 -3 45 -20 45 -17 0 -20 7 -20 40 0 36 -2
40 -25 40 -22 0 -25 4 -25 40 0 33 -3 40 -20 40 -17 0 -20 7 -20 45 0 38 -3
45 -20 45 -17 0 -20 7 -20 40 0 33 -3 40 -20 40 -17 0 -20 7 -20 40 0 33 -3
40 -20 40 -15 0 -20 7 -20 25 0 18 -5 25 -20 25 -17 0 -20 7 -20 40 0 36 -2
40 -25 40 -22 0 -25 4 -25 40 0 33 -3 40 -20 40 -17 0 -20 7 -20 45 0 38 -3
45 -20 45 -17 0 -20 7 -20 40 0 33 -3 40 -20 40 -17 0 -20 7 -20 40 0 33 -3
40 -20 40 -17 0 -20 7 -20 45 0 38 -3 45 -20 45 -13 0 -20 7 -20 19 0 13 -8
21 -22 23 -19 2 -24 10 -26 41 -3 29 -7 37 -23 37 -16 0 -19 7 -19 40 0 33 -3
40 -20 40 -17 0 -20 7 -20 45 0 38 -3 45 -20 45 -17 0 -20 7 -20 40 0 33 -3
40 -20 40 -17 0 -20 7 -20 40 0 33 -3 40 -20 40 -17 0 -20 7 -20 45 0 41 -2
45 -25 45 -18 0 -25 5 -25 20 0 13 -7 20 -20 20 -17 0 -20 7 -20 40 0 33 -3
40 -20 40 -17 0 -20 7 -20 45 0 38 -3 45 -20 45 -17 0 -20 7 -20 40 0 33 -3
40 -20 40 -17 0 -20 7 -20 40 0 33 -3 40 -20 40 -17 0 -20 7 -20 45 0 41 -2
45 -25 45 -18 0 -25 5 -25 19 0 10 -9 21 -20 24 -15 4 -20 14 -20 41 0 29 -4
36 -20 36 -17 0 -20 7 -20 40 0 33 -3 40 -20 40 -17 0 -20 7 -20 45 0 38 -3
45 -20 45 -17 0 -20 7 -20 40 0 33 -3 40 -20 40 -17 0 -20 7 -20 40 0 36 -2
40 -25 40 -23 0 -25 4 -25 45 0 38 -3 45 -20 45 -13 0 -20 7 -20 19 0 10 -9
21 -20 24 -15 4 -20 14 -20 41 0 29 -4 36 -20 36 -17 0 -20 7 -20 45 0 38 -3
45 -20 45 -17 0 -20 7 -20 40 0 33 -3 40 -20 40 -17 0 -20 7 -20 40 0 36 -2
40 -25 40 -23 0 -25 4 -25 45 0 38 -3 45 -20 45 -17 0 -20 7 -20 40 0 33 -3
40 -20 40 -13 0 -20 7 -20 20 0 13 -7 20 -20 20 -17 0 -20 7 -20 40 0 33 -3
40 -20 40 -17 0 -20 7 -20 45 0 38 -3 45 -20 45 -17 0 -20 7 -20 40 0 36 -2
40 -25 40 -22 0 -25 4 -25 40 0 33 -3 40 -20 40 -17 0 -20 7 -20 45 0 38 -3
45 -20 45 -17 0 -20 7 -20 40 0 33 -3 40 -20 40 -13 0 -20 7 -20 20 0 13 -7
20 -20 20 -17 0 -20 7 -20 45 0 38 -3 45 -20 45 -17 0 -20 7 -20 40 0 36 -2
40 -25 40 -22 0 -25 4 -25 40 0 33 -3 40 -20 40 -17 0 -20 7 -20 45 0 38 -3
45 -20 45 -17 0 -20 7 -20 40 0 33 -3 40 -20 40 -17 0 -20 7 -20 40 0 33 -3
40 -20 40 -13 0 -20 7 -20 20 0 13 -7 20 -20 20 -17 0 -20 7 -20 45 0 41 -2
45 -25 45 -22 0 -25 4 -25 40 0 33 -3 40 -20 40 -17 0 -20 7 -20 40 0 33 -3
40 -20 40 -17 0 -20 7 -20 45 0 38 -3 45 -20 45 -17 0 -20 7 -20 40 0 33 -3
40 -20 40 -17 0 -20 7 -20 40 0 33 -3 40 -20 40 -15 0 -20 7 -20 25 0 20 -5
25 -25 25 -22 0 -25 4 -25 40 0 33 -3 40 -20 40 -17 0 -20 7 -20 40 0 33 -3
40 -20 40 -17 0 -20 7 -20 45 0 38 -3 45 -20 45 -17 0 -20 7 -20 40 0 33 -3
40 -20 40 -17 0 -20 7 -20 40 0 33 -3 40 -20 40 -13 0 -20 7 -20 20 0 13 -7
20 -19 20 -21 0 -31 19 -31 61 0 22 -5 29 -20 29 -17 0 -20 7 -20 40 0 33 -3
40 -20 40 -17 0 -20 7 -20 40 0 33 -3 40 -20 40 -17 0 -20 7 -20 45 0 38 -3
45 -20 45 -17 0 -20 7 -20 40 0 33 -3 40 -20 40 -17 0 -20 7 -20 40 0 36 -2
40 -25 40 -20 0 -25 5 -25 25 0 18 -5 25 -20 25 -17 0 -20 7 -20 40 0 33 -3
40 -20 40 -17 0 -20 7 -20 40 0 33 -3 40 -20 40 -17 0 -20 7 -20 45 0 38 -3
45 -20 45 -17 0 -20 7 -20 40 0 33 -3 40 -20 40 -17 0 -20 7 -20 40 0 36 -2
40 -25 40 -23 0 -25 4 -25 45 0 38 -3 45 -20 45 -13 0 -20 7 -20 20 0 13 -7
20 -20 20 -17 0 -20 7 -20 40 0 33 -3 40 -20 40 -17 0 -20 7 -20 40 0 33 -3
40 -20 40 -17 0 -20 7 -20 45 0 38 -3 45 -20 45 -17 0 -20 7 -20 40 0 36 -2
40 -25 40 -22 0 -25 4 -25 40 0 33 -3 40 -20 40 -17 0 -20 7 -20 45 0 38 -3
45 -20 45 -13 0 -20 7 -20 20 0 13 -7 20 -20 20 -17 0 -20 7 -20 40 0 33 -3
40 -20 40 -17 0 -20 7 -20 45 0 38 -3 45 -20 45 -17 0 -20 7 -20 40 0 36 -2
40 -25 40 -22 0 -25 4 -25 40 0 33 -3 40 -20 40 -17 0 -20 7 -20 45 0 38 -3
45 -20 45 -17 0 -20 7 -20 40 0 33 -3 40 -20 40 -13 0 -20 7 -20 20 0 13 -7
20 -20 20 -17 0 -20 7 -20 40 0 33 -3 40 -20 40 -17 0 -20 7 -20 45 0 41 -2
45 -25 45 -22 0 -25 4 -25 40 0 33 -3 40 -20 40 -17 0 -20 7 -20 40 0 33 -3
40 -20 40 -17 0 -20 7 -20 45 0 38 -3 45 -20 45 -17 0 -20 7 -20 40 0 33 -3
40 -20 40 -13 0 -20 7 -20 20 0 13 -7 20 -20 20 -17 0 -20 7 -20 45 0 41 -2
45 -25 45 -22 0 -25 4 -25 40 0 33 -3 40 -20 40 -17 0 -20 7 -20 40 0 33 -3
40 -20 40 -17 0 -20 7 -20 45 0 38 -3 45 -20 45 -17 0 -20 7 -20 40 0 33 -3
40 -20 40 -13 0 -20 7 -20 20 0 13 -7 20 -20 20 -17 0 -20 7 -20 39 0 33 -4
40 -22 43 -19 2 -24 10 -26 46 -3 34 -7 42 -23 42 -16 0 -19 7 -19 40 0 33 -3
40 -20 40 -17 0 -20 7 -20 40 0 33 -3 40 -20 40 -17 0 -20 7 -20 45 0 38 -3
45 -20 45 -17 0 -20 7 -20 40 0 33 -3 40 -20 40 -13 0 -20 7 -20 19 0 13 -8
21 -22 23 -19 2 -24 10 -26 45 -3 35 -7 43 -23 43 -16 0 -19 7 -19 40 0 33 -3
40 -20 40 -17 0 -20 7 -20 40 0 33 -3 40 -20 40 -17 0 -20 7 -20 45 0 38 -3
45 -20 45 -17 0 -20 7 -20 40 0 33 -3 40 -20 40 -17 0 -20 7 -20 40 0 36 -2
40 -25 40 -18 0 -25 5 -25 19 0 10 -9 21 -20 24 -16 4 -20 14 -20 46 0 34 -3
41 -20 41 -17 0 -20 7 -20 40 0 33 -3 40 -20 40 -17 0 -20 7 -20 40 0 33 -3
40 -20 40 -17 0 -20 7 -20 45 0 38 -3 45 -20 45 -17 0 -20 7 -20 40 0 36 -2
40 -25 40 -22 0 -25 4 -25 40 0 33 -3 40 -20 40 -15 0 -20 7 -20 25 0 18 -5
25 -20 25 -17 0 -20 7 -20 40 0 33 -3 40 -20 40 -17 0 -20 7 -20 40 0 33 -3
40 -20 40 -17 0 -20 7 -20 45 0 38 -3 45 -20 45 -17 0 -20 7 -20 40 0 36 -2
40 -25 40 -22 0 -25 4 -25 40 0 33 -3 40 -20 40 -17 0 -20 7 -20 45 0 38 -3
45 -20 45 -13 0 -20 7 -20 20 0 13 -7 20 -20 20 -17 0 -20 7 -20 40 0 33 -3
40 -20 40 -17 0 -20 7 -20 40 0 33 -3 40 -20 40 -17 0 -20 7 -20 45 0 41 -2
45 -25 45 -22 0 -25 4 -25 40 0 33 -3 40 -20 40 -17 0 -20 7 -20 40 0 33 -3
40 -20 40 -17 0 -20 7 -20 45 0 38 -3 45 -20 45 -13 0 -20 7 -20 20 0 13 -7
20 -20 20 -17 0 -20 7 -20 40 0 33 -3 40 -20 40 -17 0 -20 7 -20 45 0 41 -2
45 -25 45 -22 0 -25 4 -25 40 0 33 -3 40 -20 40 -17 0 -20 7 -20 40 0 33 -3
40 -20 40 -17 0 -20 7 -20 45 0 38 -3 45 -20 45 -13 0 -20 7 -20 20 0 13 -7
20 -20 20 -17 0 -20 7 -20 40 0 33 -3 40 -20 40 -17 0 -20 7 -20 40 0 36 -2
40 -25 40 -23 0 -25 4 -25 45 0 38 -3 45 -20 45 -17 0 -20 7 -20 40 0 33 -3
40 -20 40 -17 0 -20 7 -20 40 0 33 -3 40 -20 40 -17 0 -20 7 -20 45 0 38 -3
45 -20 45 -13 0 -20 7 -20 20 0 13 -7 20 -20 20 -17 0 -20 7 -20 39 0 33 -4
40 -22 43 -19 2 -24 10 -26 46 -3 34 -7 42 -23 42 -16 0 -19 7 -19 40 0 33 -3
40 -20 40 -17 0 -20 7 -20 40 0 33 -3 40 -20 40 -17 0 -20 7 -20 45 0 38 -3
45 -20 45 -17 0 -20 7 -20 40 0 33 -3 40 -20 40 -13 0 -20 7 -20 19 0 13 -8
21 -22 23 -18 2 -24 10 -26 39 -2 27 -9 38 -23 42 -15 4 -19 14 -19 46 0 34
-3 41 -20 41 -17 0 -20 7 -20 40 0 33 -3 40 -20 40 -17 0 -20 7 -20 40 0 33
-3 40 -20 40 -17 0 -20 7 -20 45 0 38 -3 45 -20 45 -17 0 -20 7 -20 40 0 36
-2 40 -25 40 -18 0 -25 5 -25 19 0 10 -9 21 -20 24 -16 4 -20 14 -20 46 0 34
-3 41 -20 41 -17 0 -20 7 -20 40 0 33 -3 40 -20 40 -17 0 -20 7 -20 40 0 33
-3 40 -20 40 -17 0 -20 7 -20 45 0 38 -3 45 -20 45 -17 0 -20 7 -20 40 0 36
-2 40 -25 40 -22 0 -25 4 -25 40 0 33 -3 40 -20 40 -13 0 -20 7 -20 19 0 10
-9 21 -20 24 -16 4 -20 14 -20 46 0 34 -3 41 -20 41 -17 0 -20 7 -20 40 0 33
-3 40 -20 40 -17 0 -20 7 -20 40 0 33 -3 40 -20 40 -17 0 -20 7 -20 45 0 41
-2 45 -25 45 -22 0 -25 4 -25 40 0 33 -3 40 -20 40 -13 0 -20 7 -20 19 0 10
-9 21 -20 24 -16 4 -20 14 -20 46 0 34 -3 41 -20 41 -17 0 -20 7 -20 40 0 33
-3 40 -20 40 -17 0 -20 7 -20 40 0 33 -3 40 -20 40 -17 0 -20 7 -20 45 0 41
-2 45 -25 45 -22 0 -25 4 -25 40 0 33 -3 40 -20 40 -17 0 -20 7 -20 40 0 33
-3 40 -20 40 -13 0 -20 7 -20 19 0 10 -9 21 -20 24 -16 4 -20 14 -20 46 0 34
-3 41 -20 41 -17 0 -20 7 -20 40 0 33 -3 40 -20 40 -17 0 -20 7 -20 40 0 36
-2 40 -25 40 -23 0 -25 4 -25 45 0 38 -3 45 -20 45 -17 0 -20 7 -20 40 0 33
-3 40 -20 40 -17 0 -20 7 -20 40 0 33 -3 40 -20 40 -15 0 -20 7 -20 25 0 18
-5 25 -20 25 -17 0 -20 7 -20 40 0 33 -3 40 -20 40 -17 0 -20 7 -20 40 0 36
-2 40 -25 40 -23 0 -25 4 -25 45 0 38 -3 45 -20 45 -17 0 -20 7 -20 40 0 33
-3 40 -20 40 -17 0 -20 7 -20 40 0 33 -3 40 -20 40 -17 0 -20 7 -20 45 0 38
-3 45 -20 45 -13 0 -20 7 -20 20 0 13 -7 20 -20 20 -17 0 -20 7 -20 39 0 33
-4 40 -22 43 -19 2 -24 10 -26 41 -3 29 -7 37 -23 37 -16 0 -19 7 -19 45 0 38
-3 45 -20 45 -17 0 -20 7 -20 40 0 33 -3 40 -20 40 -17 0 -20 7 -20 40 0 33
-3 40 -20 40 -17 0 -20 7 -20 45 0 38 -3 45 -20 45 -13 0 -20 7 -20 19 0 13
-8 21 -22 23 -19 2 -24 10 -26 41 -3 29 -7 37 -23 37 -16 0 -19 7 -19 45 0 38
-3 45 -20 45 -17 0 -20 7 -20 40 0 33 -3 40 -20 40 -17 0 -20 7 -20 40 0 33
-3 40 -20 40 -17 0 -20 7 -20 45 0 38 -3 45 -20 45 -17 0 -20 7 -20 40 0 36
-2 40 -25 40 -18 0 -25 5 -25 19 0 10 -9 21 -20 24 -15 4 -20 14 -20 41 0 29
-4 36 -20 36 -17 0 -20 7 -20 45 0 38 -3 45 -20 45 -17 0 -20 7 -20 40 0 33
-3 40 -20 40 -17 0 -20 7 -20 40 0 33 -3 40 -20 40 -17 0 -20 7 -20 45 0 41
-2 45 -25 45 -18 0 -25 5 -25 19 0 10 -9 21 -20 24 -15 4 -20 14 -20 41 0 29
-4 36 -20 36 -17 0 -20 7 -20 45 0 38 -3 45 -20 45 -10 0 -24 9 -30 20 -7 14
-7 20 0 20 5 0 10 9 10 20 0 14 -7 20 -22 20 -20 0 -238 399 -1737 3178 -2069
3834 -3606 6682 -3801 7042 -153 282 -2294 4251 -4582 8493 l-1391 2577 -548
0 -548 0 24 -42z"/>
<path d="M9310 44995 c0 -2 5116 -9487 11369 -21077 6252 -11590 11590 -21485
11861 -21988 272 -503 616 -1142 766 -1420 l272 -505 692 -3 692 -2 -34 62
-35 63 -51 3 c-44 3 -52 6 -52 23 0 12 -7 19 -20 19 -13 0 -20 7 -20 20 0 13
-7 20 -20 20 -13 0 -20 7 -20 20 0 17 -7 20 -45 20 -38 0 -45 3 -45 20 0 13
-7 20 -20 20 -13 0 -20 7 -20 20 0 11 -4 20 -9 20 -5 0 -45 66 -89 148 -44 81
-166 307 -272 502 -263 485 -356 657 -11765 21805 -5543 10274 -10506 19474
-11030 20445 l-952 1765 -576 3 c-318 1 -577 0 -577 -3z"/>
<path d="M16093 44918 c104 -194 5290 -9807 11320 -20983 6614 -12260 11753
-21787 12497 -23168 l414 -767 2338 0 2338 0 0 22500 0 22500 -14476 0 -14476
0 45 -82z"/>
<path d="M0 19747 l0 -19747 6005 0 6005 0 0 58 c0 90 -37 714 -65 1099 -342
4673 -1337 10139 -2841 15613 -1317 4791 -3045 9688 -5074 14380 -1190 2751
-2569 5643 -3615 7580 -224 415 -409 757 -411 759 -2 2 -4 -8882 -4 -19742z"/>
</g>
</svg>
